<svg xmlns="http://www.w3.org/2000/svg" width="780" height="168" viewBox="0 0 780 168" role="img">
<!-- generated:2026-08-18T01:23:37Z -->
<style>
@keyframes draw{from{stroke-dashoffset:var(--len)}to{stroke-dashoffset:0}}
@keyframes blip{0%,100%{opacity:.15}50%{opacity:.9}}
.l{stroke-dasharray:var(--len);stroke-dashoffset:var(--len);animation:draw 1.8s ease-out forwards}
.ring{opacity:.15;animation:blip 2.4s ease-in-out infinite 1.8s}
.l1{animation-delay:.25s}.r1{animation-delay:2.05s}
@media(prefers-reduced-motion:reduce){.l{stroke-dasharray:none;stroke-dashoffset:0;animation:none}.ring{animation:none;opacity:.6}}
</style>
<rect width="780" height="168" rx="10" fill="#0D0221" />
<rect x="0.5" y="0.5" width="779" height="167" rx="10" fill="none" stroke="#1B0940" />
<text x="20" y="30" font-family="ui-monospace,SFMono-Regular,Menlo,Consolas,'Liberation Mono',monospace" font-size="13" fill="#00FFCC" text-anchor="start" font-weight="400">tape</text><text x="20.0" y="56" font-family="ui-monospace,SFMono-Regular,Menlo,Consolas,'Liberation Mono',monospace" font-size="12" fill="#C9D1D9" text-anchor="start" font-weight="400">XAUUSD</text><text x="378.0" y="56" font-family="ui-monospace,SFMono-Regular,Menlo,Consolas,'Liberation Mono',monospace" font-size="12" fill="#00FFCC" text-anchor="end" font-weight="400">4,422.83  ▲ 3.60%</text><line x1="20.0" y1="140" x2="378.0" y2="140" stroke="#1B0940" stroke-width="1" /><polyline class="l l0" points="20.0,121.7 21.4,122.0 22.8,121.4 24.1,122.3 25.5,127.0 26.9,126.1 28.3,132.0 29.6,124.1 31.0,121.0 32.4,114.8 33.8,108.4 35.2,108.0 36.5,106.1 37.9,107.2 39.3,97.1 40.7,99.2 42.0,100.9 43.4,101.3 44.8,102.4 46.2,98.8 47.6,100.5 48.9,100.3 50.3,100.3 51.7,100.3 53.1,100.3 54.4,100.3 55.8,100.3 57.2,100.3 58.6,100.3 60.0,100.3 61.3,100.3 62.7,100.3 64.1,100.3 65.5,100.3 66.9,100.3 68.2,100.3 69.6,100.3 71.0,100.3 72.4,100.3 73.7,100.3 75.1,100.3 76.5,100.3 77.9,100.3 79.3,100.3 80.6,100.3 82.0,100.3 83.4,100.3 84.8,100.3 86.1,100.3 87.5,100.3 88.9,100.3 90.3,100.3 91.7,100.3 93.0,100.3 94.4,100.3 95.8,100.3 97.2,100.3 98.5,100.3 99.9,100.3 101.3,100.3 102.7,100.3 104.1,100.3 105.4,100.3 106.8,100.3 108.2,100.6 109.6,100.6 110.9,106.0 112.3,103.5 113.7,99.0 115.1,96.0 116.5,98.4 117.8,101.4 119.2,103.0 120.6,101.7 122.0,99.3 123.3,95.1 124.7,95.4 126.1,93.7 127.5,86.9 128.9,86.2 130.2,86.5 131.6,85.1 133.0,83.7 134.4,74.0 135.7,78.7 137.1,82.9 138.5,92.4 139.9,95.3 141.3,92.7 142.6,89.4 144.0,87.0 145.4,84.6 146.8,87.0 148.1,84.1 149.5,88.9 150.9,88.5 152.3,94.0 153.7,92.0 155.0,92.8 156.4,92.6 157.8,90.0 159.2,92.7 160.6,83.8 161.9,83.9 163.3,86.1 164.7,80.9 166.1,79.5 167.4,78.6 168.8,79.3 170.2,76.0 171.6,76.8 173.0,76.2 174.3,81.5 175.7,78.4 177.1,80.0 178.5,80.8 179.8,82.2 181.2,81.7 182.6,77.7 184.0,80.6 185.4,82.7 186.7,89.0 188.1,91.0 189.5,87.9 190.9,85.1 192.2,86.1 193.6,90.7 195.0,90.7 196.4,94.0 197.8,95.7 199.1,98.7 200.5,97.6 201.9,96.3 203.3,96.0 204.6,96.2 206.0,106.4 207.4,106.9 208.8,102.5 210.2,98.3 211.5,96.9 212.9,98.1 214.3,93.0 215.7,89.4 217.0,86.6 218.4,86.0 219.8,87.6 221.2,89.9 222.6,91.3 223.9,90.9 225.3,90.5 226.7,90.2 228.1,90.2 229.4,90.2 230.8,90.2 232.2,90.2 233.6,90.2 235.0,90.2 236.3,90.2 237.7,90.2 239.1,90.2 240.5,90.2 241.9,90.2 243.2,90.2 244.6,90.2 246.0,90.2 247.4,90.2 248.7,90.2 250.1,90.2 251.5,90.2 252.9,90.2 254.3,90.2 255.6,90.2 257.0,90.2 258.4,90.2 259.8,90.2 261.1,90.2 262.5,90.2 263.9,90.2 265.3,90.2 266.7,90.2 268.0,90.2 269.4,90.2 270.8,90.2 272.2,90.2 273.5,90.2 274.9,90.2 276.3,90.2 277.7,90.2 279.1,90.2 280.4,90.2 281.8,90.2 283.2,90.2 284.6,90.2 285.9,90.2 287.3,90.2 288.7,90.2 290.1,90.2 291.5,90.2 292.8,90.2 294.2,90.2 295.6,90.2 297.0,90.2 298.3,90.2 299.7,90.2 301.1,90.2 302.5,90.2 303.9,90.2 305.2,90.2 306.6,90.2 308.0,90.2 309.4,90.2 310.7,90.2 312.1,90.2 313.5,90.2 314.9,90.2 316.3,90.2 317.6,90.2 319.0,90.2 320.4,90.2 321.8,90.2 323.1,90.2 324.5,90.2 325.9,90.9 327.3,89.2 328.7,89.7 330.0,92.0 331.4,80.1 332.8,85.2 334.2,85.0 335.6,84.2 336.9,85.1 338.3,82.4 339.7,83.6 341.1,83.7 342.4,84.9 343.8,83.5 345.2,82.3 346.6,89.7 348.0,86.5 349.3,77.4 350.7,76.5 352.1,76.3 353.5,76.0 354.8,78.4 356.2,79.2 357.6,81.5 359.0,79.0 360.4,78.9 361.7,78.4 363.1,78.4 364.5,79.6 365.9,79.1 367.2,77.4 368.6,76.8 370.0,76.7" fill="none" stroke="#00FFCC" stroke-width="2" stroke-linecap="round" stroke-linejoin="round" style="--len:589" /><circle class="ring r0" cx="370.0" cy="76.7" r="5.5" fill="none" stroke="#00FFCC" stroke-width="1.5" /><circle cx="370.0" cy="76.7" r="2.5" fill="#00FFCC" /><text x="402.0" y="56" font-family="ui-monospace,SFMono-Regular,Menlo,Consolas,'Liberation Mono',monospace" font-size="12" fill="#C9D1D9" text-anchor="start" font-weight="400">BTCUSD</text><text x="760.0" y="56" font-family="ui-monospace,SFMono-Regular,Menlo,Consolas,'Liberation Mono',monospace" font-size="12" fill="#FF00CC" text-anchor="end" font-weight="400">64,265.00  ▼ 0.77%</text><line x1="402.0" y1="140" x2="760.0" y2="140" stroke="#1B0940" stroke-width="1" /><polyline class="l l1" points="402.0,83.7 403.4,83.1 404.8,83.1 406.1,87.5 407.5,91.6 408.9,85.2 410.3,95.7 411.6,94.7 413.0,96.7 414.4,94.0 415.8,91.1 417.2,83.2 418.5,80.3 419.9,78.5 421.3,76.3 422.7,79.1 424.0,80.6 425.4,86.8 426.8,82.9 428.2,80.3 429.6,80.3 430.9,79.1 432.3,82.5 433.7,81.7 435.1,81.0 436.4,78.4 437.8,79.2 439.2,79.5 440.6,79.3 442.0,79.0 443.3,79.2 444.7,79.0 446.1,79.9 447.5,79.0 448.9,79.4 450.2,76.1 451.6,77.5 453.0,78.4 454.4,77.1 455.7,78.6 457.1,79.1 458.5,78.0 459.9,78.8 461.3,79.6 462.6,80.7 464.0,82.5 465.4,83.9 466.8,84.2 468.1,83.7 469.5,83.0 470.9,83.9 472.3,83.6 473.7,80.7 475.0,80.1 476.4,80.8 477.8,75.2 479.2,75.0 480.5,74.4 481.9,74.6 483.3,74.3 484.7,74.6 486.1,74.9 487.4,76.0 488.8,76.5 490.2,75.9 491.6,81.2 492.9,75.8 494.3,78.6 495.7,77.4 497.1,74.0 498.5,75.2 499.8,79.2 501.2,78.1 502.6,82.4 504.0,83.6 505.3,96.3 506.7,103.2 508.1,102.7 509.5,101.2 510.9,98.3 512.2,100.7 513.6,102.6 515.0,102.9 516.4,100.4 517.7,98.8 519.1,100.8 520.5,102.4 521.9,99.9 523.3,98.8 524.6,96.8 526.0,94.2 527.4,92.1 528.8,98.3 530.1,106.6 531.5,109.5 532.9,111.2 534.3,110.8 535.7,115.1 537.0,107.9 538.4,109.4 539.8,109.2 541.2,110.0 542.6,105.0 543.9,106.2 545.3,105.6 546.7,108.5 548.1,104.9 549.4,99.2 550.8,97.1 552.2,101.4 553.6,110.5 555.0,114.0 556.3,114.4 557.7,115.0 559.1,113.2 560.5,111.3 561.8,113.4 563.2,114.9 564.6,112.8 566.0,112.1 567.4,102.7 568.7,103.8 570.1,106.6 571.5,108.7 572.9,110.1 574.2,112.5 575.6,107.4 577.0,103.6 578.4,119.9 579.8,116.7 581.1,115.5 582.5,114.1 583.9,111.4 585.3,113.3 586.6,113.0 588.0,114.3 589.4,116.2 590.8,120.6 592.2,125.2 593.5,128.5 594.9,127.9 596.3,126.4 597.7,132.0 599.0,131.0 600.4,124.4 601.8,121.1 603.2,122.4 604.6,126.1 605.9,124.7 607.3,125.8 608.7,126.1 610.1,127.5 611.4,126.4 612.8,126.0 614.2,123.4 615.6,123.6 617.0,121.4 618.3,122.5 619.7,121.1 621.1,120.9 622.5,122.5 623.9,122.6 625.2,122.2 626.6,122.7 628.0,124.4 629.4,123.3 630.7,123.4 632.1,122.9 633.5,123.2 634.9,123.1 636.3,124.5 637.6,123.2 639.0,123.8 640.4,122.9 641.8,122.5 643.1,121.3 644.5,121.5 645.9,121.7 647.3,122.1 648.7,122.3 650.0,122.8 651.4,121.5 652.8,121.4 654.2,122.1 655.5,121.8 656.9,121.5 658.3,120.2 659.7,120.8 661.1,120.4 662.4,121.0 663.8,121.5 665.2,122.4 666.6,121.1 667.9,120.8 669.3,121.6 670.7,122.6 672.1,122.4 673.5,122.3 674.8,122.2 676.2,122.2 677.6,123.5 679.0,123.9 680.3,123.5 681.7,123.6 683.1,123.7 684.5,123.6 685.9,122.3 687.2,121.7 688.6,121.5 690.0,121.3 691.4,121.0 692.7,116.5 694.1,118.7 695.5,119.1 696.9,120.8 698.3,120.3 699.6,119.2 701.0,118.9 702.4,121.0 703.8,122.3 705.1,122.5 706.5,125.7 707.9,126.2 709.3,129.0 710.7,126.4 712.0,126.1 713.4,121.1 714.8,117.5 716.2,115.3 717.6,112.8 718.9,112.9 720.3,109.2 721.7,113.0 723.1,115.1 724.4,116.7 725.8,110.6 727.2,109.3 728.6,110.3 730.0,108.1 731.3,110.5 732.7,104.6 734.1,98.2 735.5,99.6 736.8,95.9 738.2,94.5 739.6,91.9 741.0,92.8 742.4,93.3 743.7,94.3 745.1,93.6 746.5,94.9 747.9,95.0 749.2,92.9 750.6,91.0 752.0,94.7" fill="none" stroke="#FF00CC" stroke-width="2" stroke-linecap="round" stroke-linejoin="round" style="--len:669" /><circle class="ring r1" cx="752.0" cy="94.7" r="5.5" fill="none" stroke="#FF00CC" stroke-width="1.5" /><circle cx="752.0" cy="94.7" r="2.5" fill="#FF00CC" /><text x="20" y="152" font-family="ui-monospace,SFMono-Regular,Menlo,Consolas,'Liberation Mono',monospace" font-size="11" fill="#8B949E" text-anchor="start" font-weight="400">window 11.7d · 255 samples · % over window</text>
</svg>
