<svg xmlns="http://www.w3.org/2000/svg" width="780" height="168" viewBox="0 0 780 168" role="img">
<!-- generated:2026-08-22T20:26:26Z -->
<style>
@keyframes draw{from{stroke-dashoffset:var(--len)}to{stroke-dashoffset:0}}
@keyframes blip{0%,100%{opacity:.15}50%{opacity:.9}}
.l{stroke-dasharray:var(--len);stroke-dashoffset:var(--len);animation:draw 1.8s ease-out forwards}
.ring{opacity:.15;animation:blip 2.4s ease-in-out infinite 1.8s}
.l1{animation-delay:.25s}.r1{animation-delay:2.05s}
@media(prefers-reduced-motion:reduce){.l{stroke-dasharray:none;stroke-dashoffset:0;animation:none}.ring{animation:none;opacity:.6}}
</style>
<rect width="780" height="168" rx="10" fill="#0D0221" />
<rect x="0.5" y="0.5" width="779" height="167" rx="10" fill="none" stroke="#1B0940" />
<text x="20" y="30" font-family="ui-monospace,SFMono-Regular,Menlo,Consolas,'Liberation Mono',monospace" font-size="13" fill="#00FFCC" text-anchor="start" font-weight="400">tape</text><text x="20.0" y="56" font-family="ui-monospace,SFMono-Regular,Menlo,Consolas,'Liberation Mono',monospace" font-size="12" fill="#C9D1D9" text-anchor="start" font-weight="400">XAUUSD</text><text x="378.0" y="56" font-family="ui-monospace,SFMono-Regular,Menlo,Consolas,'Liberation Mono',monospace" font-size="12" fill="#00FFCC" text-anchor="end" font-weight="400">4,603.30  ▲ 6.01%</text><line x1="20.0" y1="140" x2="378.0" y2="140" stroke="#1B0940" stroke-width="1" /><polyline class="l l0" points="20.0,127.7 21.0,127.7 22.1,127.7 23.1,127.7 24.2,127.7 25.2,127.7 26.3,127.7 27.3,127.7 28.4,127.9 29.4,127.9 30.4,131.4 31.5,129.8 32.5,126.8 33.6,124.9 34.6,126.5 35.7,128.4 36.7,129.4 37.8,128.6 38.8,127.1 39.9,124.3 40.9,124.5 41.9,123.4 43.0,118.9 44.0,118.5 45.1,118.7 46.1,117.8 47.2,116.9 48.2,110.5 49.3,113.6 50.3,116.3 51.3,122.6 52.4,124.4 53.4,122.7 54.5,120.6 55.5,119.0 56.6,117.5 57.6,119.0 58.7,117.1 59.7,120.2 60.7,120.0 61.8,123.6 62.8,122.3 63.9,122.8 64.9,122.6 66.0,121.0 67.0,122.8 68.1,116.9 69.1,117.0 70.1,118.4 71.2,115.0 72.2,114.1 73.3,113.5 74.3,114.0 75.4,111.8 76.4,112.4 77.5,111.9 78.5,115.4 79.6,113.4 80.6,114.5 81.6,115.0 82.7,115.9 83.7,115.6 84.8,112.9 85.8,114.9 86.9,116.2 87.9,120.3 89.0,121.6 90.0,119.6 91.0,117.8 92.1,118.4 93.1,121.5 94.2,121.4 95.2,123.6 96.3,124.7 97.3,126.7 98.4,126.0 99.4,125.1 100.4,124.9 101.5,125.0 102.5,131.7 103.6,132.0 104.6,129.1 105.7,126.4 106.7,125.5 107.8,126.2 108.8,122.9 109.9,120.6 110.9,118.7 111.9,118.4 113.0,119.4 114.0,120.9 115.1,121.8 116.1,121.6 117.2,121.3 118.2,121.1 119.3,121.1 120.3,121.1 121.3,121.1 122.4,121.1 123.4,121.1 124.5,121.1 125.5,121.1 126.6,121.1 127.6,121.1 128.7,121.1 129.7,121.1 130.7,121.1 131.8,121.1 132.8,121.1 133.9,121.1 134.9,121.1 136.0,121.1 137.0,121.1 138.1,121.1 139.1,121.1 140.1,121.1 141.2,121.1 142.2,121.1 143.3,121.1 144.3,121.1 145.4,121.1 146.4,121.1 147.5,121.1 148.5,121.1 149.6,121.1 150.6,121.1 151.6,121.1 152.7,121.1 153.7,121.1 154.8,121.1 155.8,121.1 156.9,121.1 157.9,121.1 159.0,121.1 160.0,121.1 161.0,121.1 162.1,121.1 163.1,121.1 164.2,121.1 165.2,121.1 166.3,121.1 167.3,121.1 168.4,121.1 169.4,121.1 170.4,121.1 171.5,121.1 172.5,121.1 173.6,121.1 174.6,121.1 175.7,121.1 176.7,121.1 177.8,121.1 178.8,121.1 179.9,121.1 180.9,121.1 181.9,121.1 183.0,121.1 184.0,121.1 185.1,121.1 186.1,121.1 187.2,121.1 188.2,121.1 189.3,121.1 190.3,121.1 191.3,121.1 192.4,121.1 193.4,121.6 194.5,120.5 195.5,120.8 196.6,122.3 197.6,114.5 198.7,117.8 199.7,117.7 200.7,117.2 201.8,117.8 202.8,116.0 203.9,116.8 204.9,116.9 206.0,117.6 207.0,116.7 208.1,115.9 209.1,120.7 210.1,118.7 211.2,112.8 212.2,112.1 213.3,112.0 214.3,111.8 215.4,113.4 216.4,113.9 217.5,115.4 218.5,113.7 219.6,113.7 220.6,113.4 221.6,113.4 222.7,114.2 223.7,113.9 224.8,112.8 225.8,112.3 226.9,112.3 227.9,117.0 229.0,117.6 230.0,118.5 231.0,118.9 232.1,117.0 233.1,116.1 234.2,117.1 235.2,118.1 236.3,117.8 237.3,118.3 238.4,118.5 239.4,117.3 240.4,116.4 241.5,119.0 242.5,124.0 243.6,123.3 244.6,123.4 245.7,124.8 246.7,125.2 247.8,127.5 248.8,128.6 249.9,129.8 250.9,129.2 251.9,129.2 253.0,129.0 254.0,129.2 255.1,129.7 256.1,129.9 257.2,128.9 258.2,125.2 259.3,124.9 260.3,126.8 261.3,128.6 262.4,127.4 263.4,124.8 264.5,124.2 265.5,125.0 266.6,123.0 267.6,121.9 268.7,123.5 269.7,112.2 270.7,105.3 271.8,99.8 272.8,100.2 273.9,98.6 274.9,99.9 276.0,100.1 277.0,100.9 278.1,96.4 279.1,95.2 280.1,93.5 281.2,93.1 282.2,93.1 283.3,93.6 284.3,93.6 285.4,94.0 286.4,94.5 287.5,97.2 288.5,98.9 289.6,97.9 290.6,99.9 291.6,101.0 292.7,98.8 293.7,99.1 294.8,99.2 295.8,100.2 296.9,98.7 297.9,100.3 299.0,103.1 300.0,100.6 301.0,100.5 302.1,91.1 303.1,93.2 304.2,95.4 305.2,94.4 306.3,93.3 307.3,92.9 308.4,93.7 309.4,93.8 310.4,93.7 311.5,91.9 312.5,92.5 313.6,90.4 314.6,90.9 315.7,90.2 316.7,90.3 317.8,87.1 318.8,85.6 319.9,85.8 320.9,80.5 321.9,81.6 323.0,80.6 324.0,79.3 325.1,82.4 326.1,80.5 327.2,81.2 328.2,76.8 329.3,75.1 330.3,74.3 331.3,74.4 332.4,74.4 333.4,74.0 334.5,76.2 335.5,77.5 336.6,77.7 337.6,77.7 338.7,77.7 339.7,77.7 340.7,77.7 341.8,77.7 342.8,77.7 343.9,77.7 344.9,77.7 346.0,77.7 347.0,77.7 348.1,77.7 349.1,77.7 350.1,77.7 351.2,77.7 352.2,77.7 353.3,77.7 354.3,77.7 355.4,77.7 356.4,77.7 357.5,77.7 358.5,77.7 359.6,77.7 360.6,77.7 361.6,77.7 362.7,77.7 363.7,77.7 364.8,77.7 365.8,77.7 366.9,77.7 367.9,77.7 369.0,77.7 370.0,77.7" fill="none" stroke="#00FFCC" stroke-width="2" stroke-linecap="round" stroke-linejoin="round" style="--len:574" /><circle class="ring r0" cx="370.0" cy="77.7" r="5.5" fill="none" stroke="#00FFCC" stroke-width="1.5" /><circle cx="370.0" cy="77.7" r="2.5" fill="#00FFCC" /><text x="402.0" y="56" font-family="ui-monospace,SFMono-Regular,Menlo,Consolas,'Liberation Mono',monospace" font-size="12" fill="#C9D1D9" text-anchor="start" font-weight="400">BTCUSD</text><text x="760.0" y="56" font-family="ui-monospace,SFMono-Regular,Menlo,Consolas,'Liberation Mono',monospace" font-size="12" fill="#00FFCC" text-anchor="end" font-weight="400">77,317.00  ▲ 18.66%</text><line x1="402.0" y1="140" x2="760.0" y2="140" stroke="#1B0940" stroke-width="1" /><polyline class="l l1" points="402.0,122.7 403.0,122.6 404.1,122.6 405.1,122.5 406.2,122.6 407.2,122.7 408.3,122.8 409.3,122.9 410.4,122.8 411.4,123.7 412.4,122.8 413.5,123.3 414.5,123.1 415.6,122.5 416.6,122.7 417.7,123.4 418.7,123.2 419.8,123.9 420.8,124.1 421.9,126.1 422.9,127.3 423.9,127.2 425.0,126.9 426.0,126.5 427.1,126.9 428.1,127.2 429.2,127.2 430.2,126.8 431.3,126.6 432.3,126.9 433.3,127.1 434.4,126.7 435.4,126.6 436.5,126.2 437.5,125.8 438.6,125.5 439.6,126.5 440.7,127.8 441.7,128.3 442.7,128.6 443.8,128.5 444.8,129.2 445.9,128.1 446.9,128.3 448.0,128.3 449.0,128.4 450.1,127.6 451.1,127.8 452.1,127.7 453.2,128.2 454.2,127.6 455.3,126.6 456.3,126.3 457.4,127.0 458.4,128.5 459.5,129.1 460.5,129.1 461.6,129.2 462.6,128.9 463.6,128.6 464.7,128.9 465.7,129.2 466.8,128.8 467.8,128.7 468.9,127.2 469.9,127.4 471.0,127.8 472.0,128.2 473.0,128.4 474.1,128.8 475.1,128.0 476.2,127.3 477.2,130.0 478.3,129.5 479.3,129.3 480.4,129.1 481.4,128.6 482.4,128.9 483.5,128.9 484.5,129.1 485.6,129.4 486.6,130.1 487.7,130.9 488.7,131.4 489.8,131.3 490.8,131.1 491.9,132.0 492.9,131.8 493.9,130.8 495.0,130.2 496.0,130.4 497.1,131.0 498.1,130.8 499.2,131.0 500.2,131.0 501.3,131.3 502.3,131.1 503.3,131.0 504.4,130.6 505.4,130.6 506.5,130.3 507.5,130.4 508.6,130.2 509.6,130.2 510.7,130.4 511.7,130.5 512.7,130.4 513.8,130.5 514.8,130.8 515.9,130.6 516.9,130.6 518.0,130.5 519.0,130.6 520.1,130.5 521.1,130.8 522.1,130.6 523.2,130.7 524.2,130.5 525.3,130.4 526.3,130.2 527.4,130.3 528.4,130.3 529.5,130.4 530.5,130.4 531.6,130.5 532.6,130.3 533.6,130.3 534.7,130.4 535.7,130.3 536.8,130.3 537.8,130.1 538.9,130.2 539.9,130.1 541.0,130.2 542.0,130.3 543.0,130.4 544.1,130.2 545.1,130.2 546.2,130.3 547.2,130.5 548.3,130.4 549.3,130.4 550.4,130.4 551.4,130.4 552.4,130.6 553.5,130.7 554.5,130.6 555.6,130.6 556.6,130.6 557.7,130.6 558.7,130.4 559.8,130.3 560.8,130.3 561.9,130.3 562.9,130.2 563.9,129.5 565.0,129.8 566.0,129.9 567.1,130.2 568.1,130.1 569.2,129.9 570.2,129.9 571.3,130.2 572.3,130.4 573.3,130.4 574.4,131.0 575.4,131.1 576.5,131.5 577.5,131.1 578.6,131.0 579.6,130.2 580.7,129.6 581.7,129.3 582.7,128.8 583.8,128.9 584.8,128.3 585.9,128.9 586.9,129.2 588.0,129.5 589.0,128.5 590.1,128.3 591.1,128.4 592.1,128.1 593.2,128.5 594.2,127.5 595.3,126.5 596.3,126.7 597.4,126.1 598.4,125.9 599.5,125.4 600.5,125.6 601.6,125.7 602.6,125.8 603.6,125.7 604.7,125.9 605.7,125.9 606.8,125.6 607.8,125.3 608.9,125.9 609.9,126.5 611.0,126.5 612.0,126.2 613.0,126.2 614.1,125.7 615.1,126.1 616.2,125.9 617.2,126.4 618.3,126.5 619.3,125.7 620.4,125.7 621.4,126.2 622.4,126.3 623.5,124.1 624.5,124.1 625.6,124.5 626.6,124.1 627.7,124.1 628.7,124.2 629.8,124.6 630.8,124.7 631.9,124.8 632.9,124.7 633.9,124.8 635.0,124.9 636.0,124.7 637.1,124.4 638.1,124.2 639.2,125.1 640.2,125.5 641.3,125.7 642.3,125.7 643.3,125.8 644.4,126.0 645.4,125.7 646.5,125.3 647.5,125.6 648.6,125.6 649.6,125.1 650.7,125.2 651.7,123.8 652.7,123.4 653.8,122.1 654.8,112.0 655.9,109.5 656.9,112.7 658.0,111.8 659.0,111.5 660.1,111.4 661.1,111.0 662.1,109.9 663.2,106.8 664.2,106.1 665.3,108.0 666.3,108.0 667.4,107.8 668.4,108.0 669.5,107.6 670.5,107.5 671.6,108.2 672.6,107.9 673.6,106.8 674.7,105.8 675.7,106.9 676.8,100.1 677.8,98.2 678.9,98.4 679.9,98.4 681.0,97.9 682.0,98.4 683.0,98.9 684.1,96.8 685.1,96.3 686.2,96.0 687.2,95.1 688.3,96.6 689.3,95.9 690.4,95.1 691.4,95.6 692.4,95.3 693.5,93.8 694.5,94.3 695.6,87.8 696.6,89.4 697.7,88.0 698.7,87.2 699.8,85.9 700.8,85.3 701.9,81.4 702.9,77.5 703.9,76.9 705.0,77.0 706.0,79.9 707.1,78.9 708.1,79.2 709.2,79.5 710.2,78.0 711.3,78.9 712.3,78.3 713.3,79.4 714.4,79.2 715.4,79.3 716.5,78.4 717.5,78.3 718.6,76.6 719.6,75.3 720.7,74.3 721.7,74.9 722.7,74.0 723.8,75.4 724.8,76.5 725.9,75.2 726.9,74.1 728.0,74.2 729.0,79.2 730.1,78.3 731.1,78.3 732.1,79.5 733.2,79.3 734.2,81.3 735.3,79.8 736.3,80.6 737.4,79.4 738.4,79.0 739.5,79.4 740.5,79.9 741.6,80.1 742.6,80.3 743.6,79.8 744.7,79.4 745.7,78.7 746.8,78.9 747.8,79.2 748.9,79.0 749.9,79.0 751.0,78.5 752.0,78.8" fill="none" stroke="#FF00CC" stroke-width="2" stroke-linecap="round" stroke-linejoin="round" style="--len:436" /><circle class="ring r1" cx="752.0" cy="78.8" r="5.5" fill="none" stroke="#FF00CC" stroke-width="1.5" /><circle cx="752.0" cy="78.8" r="2.5" fill="#FF00CC" /><text x="20" y="152" font-family="ui-monospace,SFMono-Regular,Menlo,Consolas,'Liberation Mono',monospace" font-size="11" fill="#8B949E" text-anchor="start" font-weight="400">window 13.2d · 336 samples · % over window</text>
</svg>
