<svg xmlns="http://www.w3.org/2000/svg" width="780" height="168" viewBox="0 0 780 168" role="img">
<!-- generated:2026-09-26T16:37:33Z -->
<style>
@keyframes draw{from{stroke-dashoffset:var(--len)}to{stroke-dashoffset:0}}
@keyframes blip{0%,100%{opacity:.15}50%{opacity:.9}}
.l{stroke-dasharray:var(--len);stroke-dashoffset:var(--len);animation:draw 1.8s ease-out forwards}
.ring{opacity:.15;animation:blip 2.4s ease-in-out infinite 1.8s}
.l1{animation-delay:.25s}.r1{animation-delay:2.05s}
@media(prefers-reduced-motion:reduce){.l{stroke-dasharray:none;stroke-dashoffset:0;animation:none}.ring{animation:none;opacity:.6}}
</style>
<rect width="780" height="168" rx="10" fill="#0D0221" />
<rect x="0.5" y="0.5" width="779" height="167" rx="10" fill="none" stroke="#1B0940" />
<text x="20" y="30" font-family="ui-monospace,SFMono-Regular,Menlo,Consolas,'Liberation Mono',monospace" font-size="13" fill="#00FFCC" text-anchor="start" font-weight="400">tape</text><text x="20.0" y="56" font-family="ui-monospace,SFMono-Regular,Menlo,Consolas,'Liberation Mono',monospace" font-size="12" fill="#C9D1D9" text-anchor="start" font-weight="400">XAUUSD</text><text x="378.0" y="56" font-family="ui-monospace,SFMono-Regular,Menlo,Consolas,'Liberation Mono',monospace" font-size="12" fill="#FF00CC" text-anchor="end" font-weight="400">4,285.29  ▼ 6.62%</text><line x1="20.0" y1="140" x2="378.0" y2="140" stroke="#1B0940" stroke-width="1" /><polyline class="l l0" points="20.0,86.8 21.0,87.6 22.1,86.8 23.1,85.9 24.2,88.2 25.2,86.8 26.3,87.3 27.3,84.1 28.4,82.9 29.4,82.3 30.4,82.3 31.5,82.4 32.5,82.1 33.6,83.7 34.6,84.6 35.7,84.8 36.7,84.8 37.8,84.8 38.8,84.8 39.9,84.8 40.9,84.8 41.9,84.8 43.0,84.8 44.0,84.8 45.1,84.8 46.1,84.8 47.2,84.8 48.2,84.8 49.3,84.8 50.3,84.8 51.3,84.8 52.4,84.8 53.4,84.8 54.5,84.8 55.5,84.8 56.6,84.8 57.6,84.8 58.7,84.8 59.7,84.8 60.7,84.8 61.8,84.8 62.8,84.8 63.9,84.8 64.9,84.8 66.0,84.8 67.0,84.8 68.1,84.8 69.1,84.8 70.1,84.8 71.2,84.8 72.2,84.8 73.3,84.8 74.3,84.8 75.4,84.8 76.4,84.8 77.5,84.8 78.5,84.8 79.6,84.8 80.6,84.8 81.6,84.8 82.7,84.8 83.7,84.8 84.8,84.8 85.8,84.8 86.9,84.8 87.9,84.8 89.0,84.8 90.0,84.8 91.0,84.8 92.1,84.8 93.1,84.8 94.2,84.8 95.2,84.8 96.3,84.8 97.3,84.8 98.4,84.8 99.4,84.8 100.4,84.8 101.5,84.8 102.5,84.8 103.6,84.8 104.6,84.8 105.7,84.8 106.7,84.8 107.8,82.9 108.8,84.0 109.9,83.5 110.9,83.9 111.9,83.0 113.0,79.9 114.0,79.8 115.1,79.4 116.1,79.0 117.2,78.9 118.2,79.2 119.3,79.3 120.3,78.5 121.3,78.8 122.4,76.3 123.4,75.8 124.5,75.4 125.5,76.0 126.6,76.9 127.6,80.0 128.7,80.3 129.7,79.4 130.7,78.4 131.8,78.0 132.8,77.2 133.9,76.1 134.9,75.5 136.0,74.0 137.0,75.8 138.1,79.1 139.1,80.7 140.1,81.7 141.2,79.2 142.2,78.9 143.3,79.8 144.3,80.7 145.4,80.5 146.4,80.5 147.5,79.3 148.5,79.3 149.6,84.0 150.6,80.1 151.6,77.5 152.7,79.1 153.7,79.7 154.8,78.3 155.8,77.0 156.9,76.4 157.9,77.0 159.0,75.9 160.0,76.7 161.0,77.7 162.1,79.7 163.1,78.2 164.2,79.2 165.2,79.4 166.3,79.9 167.3,80.4 168.4,81.1 169.4,81.4 170.4,82.1 171.5,82.3 172.5,82.2 173.6,83.5 174.6,82.0 175.7,86.0 176.7,85.3 177.8,86.2 178.8,83.3 179.9,86.9 180.9,85.0 181.9,87.7 183.0,104.4 184.0,105.3 185.1,105.3 186.1,105.6 187.2,105.6 188.2,105.6 189.3,105.3 190.3,105.3 191.3,105.3 192.4,105.6 193.4,105.6 194.5,105.6 195.5,104.5 196.6,106.5 197.6,107.7 198.7,108.2 199.7,106.4 200.7,106.2 201.8,108.4 202.8,116.7 203.9,118.9 204.9,123.5 206.0,123.1 207.0,123.5 208.1,126.0 209.1,126.2 210.1,116.6 211.2,116.4 212.2,114.7 213.3,115.0 214.3,113.0 215.4,109.2 216.4,108.2 217.5,100.3 218.5,102.6 219.6,102.9 220.6,102.0 221.6,103.0 222.7,102.2 223.7,113.9 224.8,107.9 225.8,108.7 226.9,108.9 227.9,108.9 229.0,108.9 230.0,108.9 231.0,108.9 232.1,108.9 233.1,108.9 234.2,108.9 235.2,108.9 236.3,108.9 237.3,108.9 238.4,108.9 239.4,108.9 240.4,108.9 241.5,108.9 242.5,108.9 243.6,108.4 244.6,109.4 245.7,112.6 246.7,115.1 247.8,111.5 248.8,112.2 249.9,110.3 250.9,108.1 251.9,114.0 253.0,112.0 254.0,113.9 255.1,118.9 256.1,119.5 257.2,118.9 258.2,113.5 259.3,112.5 260.3,113.4 261.3,112.6 262.4,112.8 263.4,113.8 264.5,112.0 265.5,113.9 266.6,120.0 267.6,118.4 268.7,123.8 269.7,124.3 270.7,123.8 271.8,122.7 272.8,120.8 273.9,115.3 274.9,118.4 276.0,120.5 277.0,120.2 278.1,120.2 279.1,120.2 280.1,120.2 281.2,120.2 282.2,120.2 283.3,120.2 284.3,120.2 285.4,120.2 286.4,120.2 287.5,120.2 288.5,120.2 289.6,120.2 290.6,120.2 291.6,121.7 292.7,122.2 293.7,123.8 294.8,130.5 295.8,126.1 296.9,127.4 297.9,126.9 299.0,128.7 300.0,130.2 301.0,127.4 302.1,127.8 303.1,128.9 304.2,123.2 305.2,122.8 306.3,121.9 307.3,125.3 308.4,132.0 309.4,129.0 310.4,127.3 311.5,125.8 312.5,119.3 313.6,119.3 314.6,120.9 315.7,118.9 316.7,117.3 317.8,116.0 318.8,119.1 319.9,114.5 320.9,116.1 321.9,116.1 323.0,116.1 324.0,116.1 325.1,116.1 326.1,116.1 327.2,116.1 328.2,116.1 329.3,116.1 330.3,116.1 331.3,116.1 332.4,116.1 333.4,116.1 334.5,116.1 335.5,116.1 336.6,116.8 337.6,115.9 338.7,119.7 339.7,120.1 340.7,120.9 341.8,119.6 342.8,119.1 343.9,124.3 344.9,122.2 346.0,121.5 347.0,118.5 348.1,118.3 349.1,120.9 350.1,123.8 351.2,125.5 352.2,128.4 353.3,128.8 354.3,128.2 355.4,129.2 356.4,131.9 357.5,131.7 358.5,131.4 359.6,130.6 360.6,131.0 361.6,131.7 362.7,126.8 363.7,129.2 364.8,128.4 365.8,129.0 366.9,129.0 367.9,129.0 369.0,129.0 370.0,129.0" fill="none" stroke="#00FFCC" stroke-width="2" stroke-linecap="round" stroke-linejoin="round" style="--len:607" /><circle class="ring r0" cx="370.0" cy="129.0" r="5.5" fill="none" stroke="#00FFCC" stroke-width="1.5" /><circle cx="370.0" cy="129.0" r="2.5" fill="#00FFCC" /><text x="402.0" y="56" font-family="ui-monospace,SFMono-Regular,Menlo,Consolas,'Liberation Mono',monospace" font-size="12" fill="#C9D1D9" text-anchor="start" font-weight="400">BTCUSD</text><text x="760.0" y="56" font-family="ui-monospace,SFMono-Regular,Menlo,Consolas,'Liberation Mono',monospace" font-size="12" fill="#00FFCC" text-anchor="end" font-weight="400">84,135.00  ▲ 8.29%</text><line x1="402.0" y1="140" x2="760.0" y2="140" stroke="#1B0940" stroke-width="1" /><polyline class="l l1" points="402.0,120.7 403.0,119.9 404.1,120.1 405.1,124.3 406.2,122.8 407.2,123.3 408.3,123.7 409.3,121.5 410.4,122.9 411.4,121.9 412.4,123.6 413.5,123.3 414.5,123.5 415.6,122.1 416.6,121.9 417.7,119.5 418.7,117.5 419.8,116.0 420.8,116.9 421.9,115.6 422.9,117.6 423.9,119.3 425.0,117.4 426.0,115.8 427.1,115.9 428.1,123.3 429.2,121.9 430.2,122.0 431.3,123.8 432.3,123.4 433.3,126.4 434.4,124.1 435.4,125.3 436.5,123.5 437.5,123.0 438.6,123.5 439.6,124.4 440.7,124.6 441.7,124.9 442.7,124.1 443.8,123.5 444.8,122.5 445.9,122.8 446.9,123.2 448.0,123.0 449.0,123.1 450.1,122.3 451.1,122.7 452.1,122.6 453.2,123.6 454.2,124.5 455.3,124.1 456.3,124.1 457.4,124.4 458.4,124.4 459.5,123.3 460.5,124.0 461.6,125.0 462.6,126.3 463.6,129.2 464.7,128.5 465.7,128.8 466.8,128.4 467.8,126.9 468.9,125.4 469.9,125.4 471.0,123.7 472.0,122.9 473.0,123.3 474.1,122.1 475.1,122.1 476.2,123.6 477.2,123.6 478.3,123.2 479.3,122.9 480.4,122.7 481.4,123.2 482.4,122.7 483.5,122.5 484.5,122.3 485.6,122.5 486.6,122.2 487.7,119.3 488.7,121.2 489.8,120.5 490.8,121.2 491.9,121.7 492.9,121.8 493.9,122.7 495.0,122.6 496.0,123.6 497.1,124.5 498.1,123.8 499.2,122.0 500.2,124.0 501.3,121.8 502.3,119.5 503.3,120.1 504.4,113.6 505.4,118.3 506.5,110.4 507.5,110.8 508.6,110.3 509.6,115.8 510.7,114.3 511.7,114.6 512.7,115.7 513.8,114.2 514.8,115.1 515.9,115.0 516.9,114.2 518.0,114.3 519.0,110.1 520.1,103.6 521.1,106.2 522.1,106.8 523.2,104.6 524.2,105.9 525.3,105.8 526.3,108.1 527.4,109.4 528.4,112.3 529.5,112.5 530.5,113.5 531.6,116.7 532.6,112.6 533.6,111.9 534.7,112.6 535.7,114.2 536.8,113.0 537.8,114.4 538.9,115.1 539.9,116.8 541.0,115.7 542.0,115.5 543.0,116.7 544.1,114.6 545.1,113.4 546.2,113.6 547.2,114.9 548.3,113.8 549.3,113.9 550.4,114.6 551.4,114.8 552.4,117.2 553.5,115.3 554.5,116.5 555.6,117.9 556.6,116.0 557.7,118.9 558.7,116.3 559.8,117.5 560.8,114.4 561.9,110.7 562.9,108.2 563.9,110.0 565.0,120.6 566.0,120.2 567.1,121.4 568.1,120.8 569.2,119.0 570.2,118.4 571.3,117.9 572.3,119.0 573.3,118.5 574.4,114.4 575.4,113.9 576.5,115.5 577.5,117.3 578.6,120.2 579.6,118.9 580.7,116.0 581.7,113.9 582.7,115.6 583.8,114.5 584.8,119.3 585.9,121.6 586.9,122.9 588.0,123.8 589.0,122.6 590.1,121.7 591.1,125.6 592.1,122.8 593.2,123.7 594.2,122.6 595.3,123.9 596.3,122.7 597.4,120.7 598.4,119.8 599.5,102.6 600.5,100.9 601.6,99.7 602.6,101.9 603.6,104.1 604.7,102.6 605.7,112.6 606.8,109.5 607.8,109.6 608.9,109.5 609.9,110.2 611.0,110.5 612.0,110.3 613.0,110.4 614.1,109.9 615.1,108.2 616.2,108.9 617.2,109.2 618.3,109.4 619.3,108.3 620.4,109.5 621.4,108.7 622.4,110.3 623.5,109.7 624.5,108.8 625.6,108.6 626.6,107.7 627.7,109.3 628.7,111.7 629.8,113.1 630.8,112.6 631.9,113.7 632.9,114.2 633.9,116.3 635.0,117.5 636.0,115.7 637.1,116.7 638.1,116.2 639.2,115.1 640.2,112.9 641.3,113.7 642.3,116.1 643.3,116.5 644.4,118.4 645.4,117.8 646.5,117.0 647.5,118.7 648.6,124.9 649.6,123.8 650.7,123.9 651.7,123.7 652.7,125.4 653.8,124.0 654.8,124.4 655.9,114.3 656.9,121.3 658.0,122.2 659.0,123.6 660.1,122.7 661.1,123.4 662.1,122.8 663.2,122.6 664.2,122.8 665.3,123.8 666.3,123.1 667.4,123.0 668.4,123.3 669.5,125.9 670.5,123.3 671.6,122.8 672.6,122.9 673.6,126.2 674.7,125.8 675.7,120.9 676.8,119.0 677.8,113.4 678.9,115.9 679.9,120.0 681.0,122.3 682.0,125.0 683.0,126.9 684.1,130.3 685.1,131.8 686.2,130.9 687.2,130.8 688.3,132.0 689.3,130.8 690.4,129.6 691.4,128.4 692.4,127.4 693.5,128.2 694.5,128.1 695.6,126.8 696.6,128.6 697.7,128.1 698.7,121.6 699.8,118.1 700.8,104.4 701.9,103.6 702.9,102.3 703.9,103.0 705.0,102.4 706.0,101.5 707.1,101.5 708.1,98.9 709.2,100.6 710.2,103.2 711.3,101.8 712.3,102.4 713.3,106.4 714.4,106.2 715.4,102.7 716.5,102.8 717.5,104.1 718.6,101.9 719.6,98.2 720.7,99.9 721.7,78.1 722.7,76.5 723.8,74.3 724.8,78.4 725.9,79.0 726.9,76.7 728.0,74.0 729.0,75.1 730.1,74.6 731.1,74.2 732.1,74.5 733.2,79.3 734.2,85.3 735.3,85.4 736.3,85.3 737.4,87.7 738.4,89.3 739.5,86.0 740.5,85.2 741.6,85.5 742.6,84.0 743.6,86.0 744.7,82.7 745.7,88.5 746.8,87.4 747.8,86.9 748.9,87.0 749.9,87.2 751.0,86.3 752.0,86.5" fill="none" stroke="#FF00CC" stroke-width="2" stroke-linecap="round" stroke-linejoin="round" style="--len:717" /><circle class="ring r1" cx="752.0" cy="86.5" r="5.5" fill="none" stroke="#FF00CC" stroke-width="1.5" /><circle cx="752.0" cy="86.5" r="2.5" fill="#FF00CC" /><text x="20" y="152" font-family="ui-monospace,SFMono-Regular,Menlo,Consolas,'Liberation Mono',monospace" font-size="11" fill="#8B949E" text-anchor="start" font-weight="400">window 36.3d · 336 samples · % over window</text>
</svg>
