<svg xmlns="http://www.w3.org/2000/svg" width="780" height="168" viewBox="0 0 780 168" role="img">
<!-- generated:2026-08-23T12:46:39Z -->
<style>
@keyframes draw{from{stroke-dashoffset:var(--len)}to{stroke-dashoffset:0}}
@keyframes blip{0%,100%{opacity:.15}50%{opacity:.9}}
.l{stroke-dasharray:var(--len);stroke-dashoffset:var(--len);animation:draw 1.8s ease-out forwards}
.ring{opacity:.15;animation:blip 2.4s ease-in-out infinite 1.8s}
.l1{animation-delay:.25s}.r1{animation-delay:2.05s}
@media(prefers-reduced-motion:reduce){.l{stroke-dasharray:none;stroke-dashoffset:0;animation:none}.ring{animation:none;opacity:.6}}
</style>
<rect width="780" height="168" rx="10" fill="#0D0221" />
<rect x="0.5" y="0.5" width="779" height="167" rx="10" fill="none" stroke="#1B0940" />
<text x="20" y="30" font-family="ui-monospace,SFMono-Regular,Menlo,Consolas,'Liberation Mono',monospace" font-size="13" fill="#00FFCC" text-anchor="start" font-weight="400">tape</text><text x="20.0" y="56" font-family="ui-monospace,SFMono-Regular,Menlo,Consolas,'Liberation Mono',monospace" font-size="12" fill="#C9D1D9" text-anchor="start" font-weight="400">XAUUSD</text><text x="378.0" y="56" font-family="ui-monospace,SFMono-Regular,Menlo,Consolas,'Liberation Mono',monospace" font-size="12" fill="#00FFCC" text-anchor="end" font-weight="400">4,603.30  ▲ 5.46%</text><line x1="20.0" y1="140" x2="378.0" y2="140" stroke="#1B0940" stroke-width="1" /><polyline class="l l0" points="20.0,123.4 21.0,118.9 22.1,118.5 23.1,118.7 24.2,117.8 25.2,116.9 26.3,110.5 27.3,113.6 28.4,116.3 29.4,122.6 30.4,124.4 31.5,122.7 32.5,120.6 33.6,119.0 34.6,117.5 35.7,119.0 36.7,117.1 37.8,120.2 38.8,120.0 39.9,123.6 40.9,122.3 41.9,122.8 43.0,122.6 44.0,121.0 45.1,122.8 46.1,116.9 47.2,117.0 48.2,118.4 49.3,115.0 50.3,114.1 51.3,113.5 52.4,114.0 53.4,111.8 54.5,112.4 55.5,111.9 56.6,115.4 57.6,113.4 58.7,114.5 59.7,115.0 60.7,115.9 61.8,115.6 62.8,112.9 63.9,114.9 64.9,116.2 66.0,120.3 67.0,121.6 68.1,119.6 69.1,117.8 70.1,118.4 71.2,121.5 72.2,121.4 73.3,123.6 74.3,124.7 75.4,126.7 76.4,126.0 77.5,125.1 78.5,124.9 79.6,125.0 80.6,131.7 81.6,132.0 82.7,129.1 83.7,126.4 84.8,125.5 85.8,126.2 86.9,122.9 87.9,120.6 89.0,118.7 90.0,118.4 91.0,119.4 92.1,120.9 93.1,121.8 94.2,121.6 95.2,121.3 96.3,121.1 97.3,121.1 98.4,121.1 99.4,121.1 100.4,121.1 101.5,121.1 102.5,121.1 103.6,121.1 104.6,121.1 105.7,121.1 106.7,121.1 107.8,121.1 108.8,121.1 109.9,121.1 110.9,121.1 111.9,121.1 113.0,121.1 114.0,121.1 115.1,121.1 116.1,121.1 117.2,121.1 118.2,121.1 119.3,121.1 120.3,121.1 121.3,121.1 122.4,121.1 123.4,121.1 124.5,121.1 125.5,121.1 126.6,121.1 127.6,121.1 128.7,121.1 129.7,121.1 130.7,121.1 131.8,121.1 132.8,121.1 133.9,121.1 134.9,121.1 136.0,121.1 137.0,121.1 138.1,121.1 139.1,121.1 140.1,121.1 141.2,121.1 142.2,121.1 143.3,121.1 144.3,121.1 145.4,121.1 146.4,121.1 147.5,121.1 148.5,121.1 149.6,121.1 150.6,121.1 151.6,121.1 152.7,121.1 153.7,121.1 154.8,121.1 155.8,121.1 156.9,121.1 157.9,121.1 159.0,121.1 160.0,121.1 161.0,121.1 162.1,121.1 163.1,121.1 164.2,121.1 165.2,121.1 166.3,121.1 167.3,121.1 168.4,121.1 169.4,121.1 170.4,121.1 171.5,121.6 172.5,120.5 173.6,120.8 174.6,122.3 175.7,114.5 176.7,117.8 177.8,117.7 178.8,117.2 179.9,117.8 180.9,116.0 181.9,116.8 183.0,116.9 184.0,117.6 185.1,116.7 186.1,115.9 187.2,120.7 188.2,118.7 189.3,112.8 190.3,112.1 191.3,112.0 192.4,111.8 193.4,113.4 194.5,113.9 195.5,115.4 196.6,113.7 197.6,113.7 198.7,113.4 199.7,113.4 200.7,114.2 201.8,113.9 202.8,112.8 203.9,112.3 204.9,112.3 206.0,117.0 207.0,117.6 208.1,118.5 209.1,118.9 210.1,117.0 211.2,116.1 212.2,117.1 213.3,118.1 214.3,117.8 215.4,118.3 216.4,118.5 217.5,117.3 218.5,116.4 219.6,119.0 220.6,124.0 221.6,123.3 222.7,123.4 223.7,124.8 224.8,125.2 225.8,127.5 226.9,128.6 227.9,129.8 229.0,129.2 230.0,129.2 231.0,129.0 232.1,129.2 233.1,129.7 234.2,129.9 235.2,128.9 236.3,125.2 237.3,124.9 238.4,126.8 239.4,128.6 240.4,127.4 241.5,124.8 242.5,124.2 243.6,125.0 244.6,123.0 245.7,121.9 246.7,123.5 247.8,112.2 248.8,105.3 249.9,99.8 250.9,100.2 251.9,98.6 253.0,99.9 254.0,100.1 255.1,100.9 256.1,96.4 257.2,95.2 258.2,93.5 259.3,93.1 260.3,93.1 261.3,93.6 262.4,93.6 263.4,94.0 264.5,94.5 265.5,97.2 266.6,98.9 267.6,97.9 268.7,99.9 269.7,101.0 270.7,98.8 271.8,99.1 272.8,99.2 273.9,100.2 274.9,98.7 276.0,100.3 277.0,103.1 278.1,100.6 279.1,100.5 280.1,91.1 281.2,93.2 282.2,95.4 283.3,94.4 284.3,93.3 285.4,92.9 286.4,93.7 287.5,93.8 288.5,93.7 289.6,91.9 290.6,92.5 291.6,90.4 292.7,90.9 293.7,90.2 294.8,90.3 295.8,87.1 296.9,85.6 297.9,85.8 299.0,80.5 300.0,81.6 301.0,80.6 302.1,79.3 303.1,82.4 304.2,80.5 305.2,81.2 306.3,76.8 307.3,75.1 308.4,74.3 309.4,74.4 310.4,74.4 311.5,74.0 312.5,76.2 313.6,77.5 314.6,77.7 315.7,77.7 316.7,77.7 317.8,77.7 318.8,77.7 319.9,77.7 320.9,77.7 321.9,77.7 323.0,77.7 324.0,77.7 325.1,77.7 326.1,77.7 327.2,77.7 328.2,77.7 329.3,77.7 330.3,77.7 331.3,77.7 332.4,77.7 333.4,77.7 334.5,77.7 335.5,77.7 336.6,77.7 337.6,77.7 338.7,77.7 339.7,77.7 340.7,77.7 341.8,77.7 342.8,77.7 343.9,77.7 344.9,77.7 346.0,77.7 347.0,77.7 348.1,77.7 349.1,77.7 350.1,77.7 351.2,77.7 352.2,77.7 353.3,77.7 354.3,77.7 355.4,77.7 356.4,77.7 357.5,77.7 358.5,77.7 359.6,77.7 360.6,77.7 361.6,77.7 362.7,77.7 363.7,77.7 364.8,77.7 365.8,77.7 366.9,77.7 367.9,77.7 369.0,77.7 370.0,77.7" fill="none" stroke="#00FFCC" stroke-width="2" stroke-linecap="round" stroke-linejoin="round" style="--len:561" /><circle class="ring r0" cx="370.0" cy="77.7" r="5.5" fill="none" stroke="#00FFCC" stroke-width="1.5" /><circle cx="370.0" cy="77.7" r="2.5" fill="#00FFCC" /><text x="402.0" y="56" font-family="ui-monospace,SFMono-Regular,Menlo,Consolas,'Liberation Mono',monospace" font-size="12" fill="#C9D1D9" text-anchor="start" font-weight="400">BTCUSD</text><text x="760.0" y="56" font-family="ui-monospace,SFMono-Regular,Menlo,Consolas,'Liberation Mono',monospace" font-size="12" fill="#00FFCC" text-anchor="end" font-weight="400">77,216.00  ▲ 20.84%</text><line x1="402.0" y1="140" x2="760.0" y2="140" stroke="#1B0940" stroke-width="1" /><polyline class="l l1" points="402.0,127.2 403.0,126.9 404.1,126.5 405.1,126.9 406.2,127.2 407.2,127.2 408.3,126.8 409.3,126.6 410.4,126.9 411.4,127.1 412.4,126.7 413.5,126.6 414.5,126.2 415.6,125.8 416.6,125.5 417.7,126.5 418.7,127.8 419.8,128.3 420.8,128.6 421.9,128.5 422.9,129.2 423.9,128.1 425.0,128.3 426.0,128.3 427.1,128.4 428.1,127.6 429.2,127.8 430.2,127.7 431.3,128.2 432.3,127.6 433.3,126.6 434.4,126.3 435.4,127.0 436.5,128.5 437.5,129.1 438.6,129.1 439.6,129.2 440.7,128.9 441.7,128.6 442.7,128.9 443.8,129.2 444.8,128.8 445.9,128.7 446.9,127.2 448.0,127.4 449.0,127.8 450.1,128.2 451.1,128.4 452.1,128.8 453.2,128.0 454.2,127.3 455.3,130.0 456.3,129.5 457.4,129.3 458.4,129.1 459.5,128.6 460.5,128.9 461.6,128.9 462.6,129.1 463.6,129.4 464.7,130.1 465.7,130.9 466.8,131.4 467.8,131.3 468.9,131.1 469.9,132.0 471.0,131.8 472.0,130.8 473.0,130.2 474.1,130.4 475.1,131.0 476.2,130.8 477.2,131.0 478.3,131.0 479.3,131.3 480.4,131.1 481.4,131.0 482.4,130.6 483.5,130.6 484.5,130.3 485.6,130.4 486.6,130.2 487.7,130.2 488.7,130.4 489.8,130.5 490.8,130.4 491.9,130.5 492.9,130.8 493.9,130.6 495.0,130.6 496.0,130.5 497.1,130.6 498.1,130.5 499.2,130.8 500.2,130.6 501.3,130.7 502.3,130.5 503.3,130.4 504.4,130.2 505.4,130.3 506.5,130.3 507.5,130.4 508.6,130.4 509.6,130.5 510.7,130.3 511.7,130.3 512.7,130.4 513.8,130.3 514.8,130.3 515.9,130.1 516.9,130.2 518.0,130.1 519.0,130.2 520.1,130.3 521.1,130.4 522.1,130.2 523.2,130.2 524.2,130.3 525.3,130.5 526.3,130.4 527.4,130.4 528.4,130.4 529.5,130.4 530.5,130.6 531.6,130.7 532.6,130.6 533.6,130.6 534.7,130.6 535.7,130.6 536.8,130.4 537.8,130.3 538.9,130.3 539.9,130.3 541.0,130.2 542.0,129.5 543.0,129.8 544.1,129.9 545.1,130.2 546.2,130.1 547.2,129.9 548.3,129.9 549.3,130.2 550.4,130.4 551.4,130.4 552.4,131.0 553.5,131.1 554.5,131.5 555.6,131.1 556.6,131.0 557.7,130.2 558.7,129.6 559.8,129.3 560.8,128.8 561.9,128.9 562.9,128.3 563.9,128.9 565.0,129.2 566.0,129.5 567.1,128.5 568.1,128.3 569.2,128.4 570.2,128.1 571.3,128.5 572.3,127.5 573.3,126.5 574.4,126.7 575.4,126.1 576.5,125.9 577.5,125.4 578.6,125.6 579.6,125.7 580.7,125.8 581.7,125.7 582.7,125.9 583.8,125.9 584.8,125.6 585.9,125.3 586.9,125.9 588.0,126.5 589.0,126.5 590.1,126.2 591.1,126.2 592.1,125.7 593.2,126.1 594.2,125.9 595.3,126.4 596.3,126.5 597.4,125.7 598.4,125.7 599.5,126.2 600.5,126.3 601.6,124.1 602.6,124.1 603.6,124.5 604.7,124.1 605.7,124.1 606.8,124.2 607.8,124.6 608.9,124.7 609.9,124.8 611.0,124.7 612.0,124.8 613.0,124.9 614.1,124.7 615.1,124.4 616.2,124.2 617.2,125.1 618.3,125.5 619.3,125.7 620.4,125.7 621.4,125.8 622.4,126.0 623.5,125.7 624.5,125.3 625.6,125.6 626.6,125.6 627.7,125.1 628.7,125.2 629.8,123.8 630.8,123.4 631.9,122.1 632.9,112.0 633.9,109.5 635.0,112.7 636.0,111.8 637.1,111.5 638.1,111.4 639.2,111.0 640.2,109.9 641.3,106.8 642.3,106.1 643.3,108.0 644.4,108.0 645.4,107.8 646.5,108.0 647.5,107.6 648.6,107.5 649.6,108.2 650.7,107.9 651.7,106.8 652.7,105.8 653.8,106.9 654.8,100.1 655.9,98.2 656.9,98.4 658.0,98.4 659.0,97.9 660.1,98.4 661.1,98.9 662.1,96.8 663.2,96.3 664.2,96.0 665.3,95.1 666.3,96.6 667.4,95.9 668.4,95.1 669.5,95.6 670.5,95.3 671.6,93.8 672.6,94.3 673.6,87.8 674.7,89.4 675.7,88.0 676.8,87.2 677.8,85.9 678.9,85.3 679.9,81.4 681.0,77.5 682.0,76.9 683.0,77.0 684.1,79.9 685.1,78.9 686.2,79.2 687.2,79.5 688.3,78.0 689.3,78.9 690.4,78.3 691.4,79.4 692.4,79.2 693.5,79.3 694.5,78.4 695.6,78.3 696.6,76.6 697.7,75.3 698.7,74.3 699.8,74.9 700.8,74.0 701.9,75.4 702.9,76.5 703.9,75.2 705.0,74.1 706.0,74.2 707.1,79.2 708.1,78.3 709.2,78.3 710.2,79.5 711.3,79.3 712.3,81.3 713.3,79.8 714.4,80.6 715.4,79.4 716.5,79.0 717.5,79.4 718.6,79.9 719.6,80.1 720.7,80.3 721.7,79.8 722.7,79.4 723.8,78.7 724.8,78.9 725.9,79.2 726.9,79.0 728.0,79.0 729.0,78.5 730.1,78.8 731.1,78.7 732.1,79.4 733.2,80.0 734.2,79.7 735.3,79.8 736.3,80.0 737.4,80.0 738.4,79.2 739.5,79.7 740.5,80.4 741.6,81.2 742.6,83.2 743.6,82.8 744.7,82.9 745.7,82.7 746.8,81.6 747.8,80.6 748.9,80.6 749.9,79.5 751.0,79.0 752.0,79.2" fill="none" stroke="#FF00CC" stroke-width="2" stroke-linecap="round" stroke-linejoin="round" style="--len:437" /><circle class="ring r1" cx="752.0" cy="79.2" r="5.5" fill="none" stroke="#FF00CC" stroke-width="1.5" /><circle cx="752.0" cy="79.2" r="2.5" fill="#FF00CC" /><text x="20" y="152" font-family="ui-monospace,SFMono-Regular,Menlo,Consolas,'Liberation Mono',monospace" font-size="11" fill="#8B949E" text-anchor="start" font-weight="400">window 12.8d · 336 samples · % over window</text>
</svg>
