<svg xmlns="http://www.w3.org/2000/svg" width="780" height="168" viewBox="0 0 780 168" role="img">
<!-- generated:2026-08-18T12:52:26Z -->
<style>
@keyframes draw{from{stroke-dashoffset:var(--len)}to{stroke-dashoffset:0}}
@keyframes blip{0%,100%{opacity:.15}50%{opacity:.9}}
.l{stroke-dasharray:var(--len);stroke-dashoffset:var(--len);animation:draw 1.8s ease-out forwards}
.ring{opacity:.15;animation:blip 2.4s ease-in-out infinite 1.8s}
.l1{animation-delay:.25s}.r1{animation-delay:2.05s}
@media(prefers-reduced-motion:reduce){.l{stroke-dasharray:none;stroke-dashoffset:0;animation:none}.ring{animation:none;opacity:.6}}
</style>
<rect width="780" height="168" rx="10" fill="#0D0221" />
<rect x="0.5" y="0.5" width="779" height="167" rx="10" fill="none" stroke="#1B0940" />
<text x="20" y="30" font-family="ui-monospace,SFMono-Regular,Menlo,Consolas,'Liberation Mono',monospace" font-size="13" fill="#00FFCC" text-anchor="start" font-weight="400">tape</text><text x="20.0" y="56" font-family="ui-monospace,SFMono-Regular,Menlo,Consolas,'Liberation Mono',monospace" font-size="12" fill="#C9D1D9" text-anchor="start" font-weight="400">XAUUSD</text><text x="378.0" y="56" font-family="ui-monospace,SFMono-Regular,Menlo,Consolas,'Liberation Mono',monospace" font-size="12" fill="#00FFCC" text-anchor="end" font-weight="400">4,396.47  ▲ 2.98%</text><line x1="20.0" y1="140" x2="378.0" y2="140" stroke="#1B0940" stroke-width="1" /><polyline class="l l0" points="20.0,121.7 21.3,122.0 22.6,121.4 23.9,122.3 25.3,127.0 26.6,126.1 27.9,132.0 29.2,124.1 30.5,121.0 31.8,114.8 33.2,108.4 34.5,108.0 35.8,106.1 37.1,107.2 38.4,97.1 39.7,99.2 41.1,100.9 42.4,101.3 43.7,102.4 45.0,98.8 46.3,100.5 47.6,100.3 48.9,100.3 50.3,100.3 51.6,100.3 52.9,100.3 54.2,100.3 55.5,100.3 56.8,100.3 58.2,100.3 59.5,100.3 60.8,100.3 62.1,100.3 63.4,100.3 64.7,100.3 66.1,100.3 67.4,100.3 68.7,100.3 70.0,100.3 71.3,100.3 72.6,100.3 73.9,100.3 75.3,100.3 76.6,100.3 77.9,100.3 79.2,100.3 80.5,100.3 81.8,100.3 83.2,100.3 84.5,100.3 85.8,100.3 87.1,100.3 88.4,100.3 89.7,100.3 91.1,100.3 92.4,100.3 93.7,100.3 95.0,100.3 96.3,100.3 97.6,100.3 98.9,100.3 100.3,100.3 101.6,100.3 102.9,100.3 104.2,100.6 105.5,100.6 106.8,106.0 108.2,103.5 109.5,99.0 110.8,96.0 112.1,98.4 113.4,101.4 114.7,103.0 116.1,101.7 117.4,99.3 118.7,95.1 120.0,95.4 121.3,93.7 122.6,86.9 123.9,86.2 125.3,86.5 126.6,85.1 127.9,83.7 129.2,74.0 130.5,78.7 131.8,82.9 133.2,92.4 134.5,95.3 135.8,92.7 137.1,89.4 138.4,87.0 139.7,84.6 141.1,87.0 142.4,84.1 143.7,88.9 145.0,88.5 146.3,94.0 147.6,92.0 148.9,92.8 150.3,92.6 151.6,90.0 152.9,92.7 154.2,83.8 155.5,83.9 156.8,86.1 158.2,80.9 159.5,79.5 160.8,78.6 162.1,79.3 163.4,76.0 164.7,76.8 166.1,76.2 167.4,81.5 168.7,78.4 170.0,80.0 171.3,80.8 172.6,82.2 173.9,81.7 175.3,77.7 176.6,80.6 177.9,82.7 179.2,89.0 180.5,91.0 181.8,87.9 183.2,85.1 184.5,86.1 185.8,90.7 187.1,90.7 188.4,94.0 189.7,95.7 191.1,98.7 192.4,97.6 193.7,96.3 195.0,96.0 196.3,96.2 197.6,106.4 198.9,106.9 200.3,102.5 201.6,98.3 202.9,96.9 204.2,98.1 205.5,93.0 206.8,89.4 208.2,86.6 209.5,86.0 210.8,87.6 212.1,89.9 213.4,91.3 214.7,90.9 216.1,90.5 217.4,90.2 218.7,90.2 220.0,90.2 221.3,90.2 222.6,90.2 223.9,90.2 225.3,90.2 226.6,90.2 227.9,90.2 229.2,90.2 230.5,90.2 231.8,90.2 233.2,90.2 234.5,90.2 235.8,90.2 237.1,90.2 238.4,90.2 239.7,90.2 241.1,90.2 242.4,90.2 243.7,90.2 245.0,90.2 246.3,90.2 247.6,90.2 248.9,90.2 250.3,90.2 251.6,90.2 252.9,90.2 254.2,90.2 255.5,90.2 256.8,90.2 258.2,90.2 259.5,90.2 260.8,90.2 262.1,90.2 263.4,90.2 264.7,90.2 266.1,90.2 267.4,90.2 268.7,90.2 270.0,90.2 271.3,90.2 272.6,90.2 273.9,90.2 275.3,90.2 276.6,90.2 277.9,90.2 279.2,90.2 280.5,90.2 281.8,90.2 283.2,90.2 284.5,90.2 285.8,90.2 287.1,90.2 288.4,90.2 289.7,90.2 291.1,90.2 292.4,90.2 293.7,90.2 295.0,90.2 296.3,90.2 297.6,90.2 298.9,90.2 300.3,90.2 301.6,90.2 302.9,90.2 304.2,90.2 305.5,90.2 306.8,90.2 308.2,90.2 309.5,90.2 310.8,90.2 312.1,90.9 313.4,89.2 314.7,89.7 316.1,92.0 317.4,80.1 318.7,85.2 320.0,85.0 321.3,84.2 322.6,85.1 323.9,82.4 325.3,83.6 326.6,83.7 327.9,84.9 329.2,83.5 330.5,82.3 331.8,89.7 333.2,86.5 334.5,77.4 335.8,76.5 337.1,76.3 338.4,76.0 339.7,78.4 341.1,79.2 342.4,81.5 343.7,79.0 345.0,78.9 346.3,78.4 347.6,78.4 348.9,79.6 350.3,79.1 351.6,77.4 352.9,76.8 354.2,76.7 355.5,83.9 356.8,84.9 358.2,86.3 359.5,86.8 360.8,84.0 362.1,82.5 363.4,84.2 364.7,85.7 366.1,85.2 367.4,86.0 368.7,86.2 370.0,84.4" fill="none" stroke="#00FFCC" stroke-width="2" stroke-linecap="round" stroke-linejoin="round" style="--len:604" /><circle class="ring r0" cx="370.0" cy="84.4" r="5.5" fill="none" stroke="#00FFCC" stroke-width="1.5" /><circle cx="370.0" cy="84.4" r="2.5" fill="#00FFCC" /><text x="402.0" y="56" font-family="ui-monospace,SFMono-Regular,Menlo,Consolas,'Liberation Mono',monospace" font-size="12" fill="#C9D1D9" text-anchor="start" font-weight="400">BTCUSD</text><text x="760.0" y="56" font-family="ui-monospace,SFMono-Regular,Menlo,Consolas,'Liberation Mono',monospace" font-size="12" fill="#FF00CC" text-anchor="end" font-weight="400">64,186.00  ▼ 0.89%</text><line x1="402.0" y1="140" x2="760.0" y2="140" stroke="#1B0940" stroke-width="1" /><polyline class="l l1" points="402.0,83.7 403.3,83.1 404.6,83.1 405.9,87.5 407.3,91.6 408.6,85.2 409.9,95.7 411.2,94.7 412.5,96.7 413.8,94.0 415.2,91.1 416.5,83.2 417.8,80.3 419.1,78.5 420.4,76.3 421.7,79.1 423.1,80.6 424.4,86.8 425.7,82.9 427.0,80.3 428.3,80.3 429.6,79.1 430.9,82.5 432.3,81.7 433.6,81.0 434.9,78.4 436.2,79.2 437.5,79.5 438.8,79.3 440.2,79.0 441.5,79.2 442.8,79.0 444.1,79.9 445.4,79.0 446.7,79.4 448.1,76.1 449.4,77.5 450.7,78.4 452.0,77.1 453.3,78.6 454.6,79.1 455.9,78.0 457.3,78.8 458.6,79.6 459.9,80.7 461.2,82.5 462.5,83.9 463.8,84.2 465.2,83.7 466.5,83.0 467.8,83.9 469.1,83.6 470.4,80.7 471.7,80.1 473.1,80.8 474.4,75.2 475.7,75.0 477.0,74.4 478.3,74.6 479.6,74.3 480.9,74.6 482.3,74.9 483.6,76.0 484.9,76.5 486.2,75.9 487.5,81.2 488.8,75.8 490.2,78.6 491.5,77.4 492.8,74.0 494.1,75.2 495.4,79.2 496.7,78.1 498.1,82.4 499.4,83.6 500.7,96.3 502.0,103.2 503.3,102.7 504.6,101.2 505.9,98.3 507.3,100.7 508.6,102.6 509.9,102.9 511.2,100.4 512.5,98.8 513.8,100.8 515.2,102.4 516.5,99.9 517.8,98.8 519.1,96.8 520.4,94.2 521.7,92.1 523.1,98.3 524.4,106.6 525.7,109.5 527.0,111.2 528.3,110.8 529.6,115.1 530.9,107.9 532.3,109.4 533.6,109.2 534.9,110.0 536.2,105.0 537.5,106.2 538.8,105.6 540.2,108.5 541.5,104.9 542.8,99.2 544.1,97.1 545.4,101.4 546.7,110.5 548.1,114.0 549.4,114.4 550.7,115.0 552.0,113.2 553.3,111.3 554.6,113.4 555.9,114.9 557.3,112.8 558.6,112.1 559.9,102.7 561.2,103.8 562.5,106.6 563.8,108.7 565.2,110.1 566.5,112.5 567.8,107.4 569.1,103.6 570.4,119.9 571.7,116.7 573.1,115.5 574.4,114.1 575.7,111.4 577.0,113.3 578.3,113.0 579.6,114.3 580.9,116.2 582.3,120.6 583.6,125.2 584.9,128.5 586.2,127.9 587.5,126.4 588.8,132.0 590.2,131.0 591.5,124.4 592.8,121.1 594.1,122.4 595.4,126.1 596.7,124.7 598.1,125.8 599.4,126.1 600.7,127.5 602.0,126.4 603.3,126.0 604.6,123.4 605.9,123.6 607.3,121.4 608.6,122.5 609.9,121.1 611.2,120.9 612.5,122.5 613.8,122.6 615.2,122.2 616.5,122.7 617.8,124.4 619.1,123.3 620.4,123.4 621.7,122.9 623.1,123.2 624.4,123.1 625.7,124.5 627.0,123.2 628.3,123.8 629.6,122.9 630.9,122.5 632.3,121.3 633.6,121.5 634.9,121.7 636.2,122.1 637.5,122.3 638.8,122.8 640.2,121.5 641.5,121.4 642.8,122.1 644.1,121.8 645.4,121.5 646.7,120.2 648.1,120.8 649.4,120.4 650.7,121.0 652.0,121.5 653.3,122.4 654.6,121.1 655.9,120.8 657.3,121.6 658.6,122.6 659.9,122.4 661.2,122.3 662.5,122.2 663.8,122.2 665.2,123.5 666.5,123.9 667.8,123.5 669.1,123.6 670.4,123.7 671.7,123.6 673.1,122.3 674.4,121.7 675.7,121.5 677.0,121.3 678.3,121.0 679.6,116.5 680.9,118.7 682.3,119.1 683.6,120.8 684.9,120.3 686.2,119.2 687.5,118.9 688.8,121.0 690.2,122.3 691.5,122.5 692.8,125.7 694.1,126.2 695.4,129.0 696.7,126.4 698.1,126.1 699.4,121.1 700.7,117.5 702.0,115.3 703.3,112.8 704.6,112.9 705.9,109.2 707.3,113.0 708.6,115.1 709.9,116.7 711.2,110.6 712.5,109.3 713.8,110.3 715.2,108.1 716.5,110.5 717.8,104.6 719.1,98.2 720.4,99.6 721.7,95.9 723.1,94.5 724.4,91.9 725.7,92.8 727.0,93.3 728.3,94.3 729.6,93.6 730.9,94.9 732.3,95.0 733.6,92.9 734.9,91.0 736.2,94.7 737.5,98.4 738.8,98.4 740.2,96.6 741.5,96.6 742.8,93.7 744.1,96.2 745.4,94.9 746.7,98.0 748.1,98.3 749.4,93.6 750.7,93.8 752.0,96.4" fill="none" stroke="#FF00CC" stroke-width="2" stroke-linecap="round" stroke-linejoin="round" style="--len:689" /><circle class="ring r1" cx="752.0" cy="96.4" r="5.5" fill="none" stroke="#FF00CC" stroke-width="1.5" /><circle cx="752.0" cy="96.4" r="2.5" fill="#FF00CC" /><text x="20" y="152" font-family="ui-monospace,SFMono-Regular,Menlo,Consolas,'Liberation Mono',monospace" font-size="11" fill="#8B949E" text-anchor="start" font-weight="400">window 12.2d · 267 samples · % over window</text>
</svg>
